Coordinates
version=1
nRows=29
nColumns=22
inDegrees=yes

Units are S.I. units (second, meters, Newtons, ...)
If the header above contains a line with 'inDegrees', this indicates whether rotational values are in degrees (yes) or radians (no).

endheader
time	pelvis_tilt	pelvis_list	pelvis_rotation	pelvis_tx	pelvis_ty	pelvis_tz	hip_flexion_r	hip_adduction_r	hip_rotation_r	knee_angle_r	ankle_angle_r	subtalar_angle_r	hip_flexion_l	hip_adduction_l	hip_rotation_l	knee_angle_l	ankle_angle_l	subtalar_angle_l	lumbar_extension	lumbar_bending	lumbar_rotation
      0.01000000	      2.69791665	      8.10463761	   -170.62011650	      0.26184919	      0.97399334	      1.01778543	      6.72006123	      8.39223759	     -4.36526288	    -14.86047539	      9.20166030	     -0.62942742	      4.56453869	     -7.09679408	      3.92993019	     -9.23174390	     11.71128826	     -1.20314761	      3.61075126	      5.62920205	     -9.36873652
      0.02000000	      2.70146419	      8.10391666	   -170.62888168	      0.26186038	      0.97398751	      1.01775212	      6.72312239	      8.39285723	     -4.36420412	    -14.85779651	      9.20234822	     -0.62907657	      4.56568916	     -7.09707776	      3.93057967	     -9.22870425	     11.71053597	     -1.20253467	      3.60341729	      5.62981308	     -9.37527226
      0.03000000	      2.70428661	      8.10348589	   -170.64274476	      0.26186084	      0.97398178	      1.01771031	      6.72797149	      8.39645800	     -4.33366369	    -14.86400476	      9.20521195	     -0.62670971	      4.55948352	     -7.09904364	      3.92201928	     -9.21703259	     11.70644695	     -1.19932988	      3.59725078	      5.63391706	     -9.41554835
      0.04000000	      2.70698318	      8.10301809	   -170.65986313	      0.26186328	      0.97397554	      1.01766119	      6.72868105	      8.39991082	     -4.31122938	    -14.86195553	      9.20823266	     -0.62454192	      4.55631661	     -7.10114907	      3.91245092	     -9.21260798	     11.70500488	     -1.19736568	      3.58912810	      5.63843588	     -9.44035100
      0.05000000	      2.70967094	      8.10314098	   -170.67878735	      0.26187265	      0.97396889	      1.01759706	      6.72955977	      8.40491314	     -4.28839058	    -14.85883965	      9.21007613	     -0.62245354	      4.55412535	     -7.10497087	      3.89713025	     -9.20867099	     11.70541378	     -1.19611492	      3.57919647	      5.64225209	     -9.46221399
      0.06000000	      2.71444810	      8.10165980	   -170.69450926	      0.26189045	      0.97395992	      1.01753225	      6.73243362	      8.40619474	     -4.28934028	    -14.85374787	      9.21082110	     -0.62232236	      4.55629069	     -7.10634295	      3.89716502	     -9.20765293	     11.70559147	     -1.19600160	      3.56894185	      5.64264650	     -9.46895629
      0.07000000	      2.71973939	      8.10235103	   -170.71999643	      0.26190386	      0.97395129	      1.01745901	      6.73909744	      8.41130460	     -4.26348711	    -14.85642219	      9.21086556	     -0.62249885	      4.55634047	     -7.11096946	      3.87030491	     -9.20419730	     11.70705296	     -1.19633535	      3.56224461	      5.64959418	     -9.50498981
      0.08000000	      2.72946669	      8.10455661	   -170.74873900	      0.26191938	      0.97393889	      1.01737827	      6.74778737	      8.41754368	     -4.24389919	    -14.85309590	      9.21004527	     -0.62393306	      4.56431830	     -7.11658301	      3.84186575	     -9.20764155	     11.70919744	     -1.19675366	      3.55855613	      5.65635005	     -9.52154169
      0.09000000	      2.74285362	      8.10700411	   -170.77874535	      0.26194424	      0.97392154	      1.01729327	      6.76334620	      8.42296577	     -4.22863198	    -14.85367907	      9.20637104	     -0.62711549	      4.57862799	     -7.12177763	      3.81606511	     -9.21460815	     11.71362583	     -1.19705427	      3.55819793	      5.66223930	     -9.53193540
      0.10000000	      2.74949197	      8.10553897	   -170.80115675	      0.26195752	      0.97391408	      1.01722432	      6.76794546	      8.42353898	     -4.23072752	    -14.84927186	      9.20657332	     -0.62789599	      4.58262508	     -7.12261740	      3.81546349	     -9.21758949	     11.71414364	     -1.19699346	      3.55202052	      5.66458977	     -9.53927446
      0.11000000	      2.78263800	      8.11190852	   -170.83628605	      0.26199801	      0.97387195	      1.01712419	      6.80870186	      8.43161487	     -4.20632018	    -14.85501776	      9.20216390	     -0.63889596	      4.63037282	     -7.12897083	      3.77282530	     -9.24400930	     11.72328796	     -1.19940090	      3.57206994	      5.67034255	     -9.54388857
      0.12000000	      2.79239309	      8.11024524	   -170.85653768	      0.26201862	      0.97385941	      1.01706475	      6.82238337	      8.43093476	     -4.20132850	    -14.86099459	      9.19993470	     -0.64159415	      4.63782576	     -7.12845089	      3.76814440	     -9.24392506	     11.72679745	     -1.19995187	      3.56686992	      5.67319177	     -9.56537055
      0.13000000	      2.79803539	      8.10850328	   -170.87360663	      0.26202709	      0.97385160	      1.01699971	      6.82579098	      8.43168706	     -4.20439033	    -14.85609351	      9.20059505	     -0.64192507	      4.64132180	     -7.12903742	      3.76945915	     -9.24494779	     11.72708730	     -1.20009843	      3.55790387	      5.67353328	     -9.57106071
      0.14000000	      2.80389834	      8.10643305	   -170.89318502	      0.26202507	      0.97384271	      1.01694072	      6.82952648	      8.43160644	     -4.20567765	    -14.85285888	      9.20099152	     -0.64243960	      4.64432698	     -7.12881972	      3.76937515	     -9.24788893	     11.72778930	     -1.20055888	      3.55026804	      5.67559761	     -9.57975881
      0.15000000	      2.84169142	      8.10492005	   -170.93293336	      0.26205158	      0.97378339	      1.01686169	      6.87757918	      8.43051075	     -4.15900701	    -14.86975444	      9.20753780	     -0.65836812	      4.70552539	     -7.12403009	      3.70881550	     -9.29621754	     11.74907238	     -1.21729216	      3.57478618	      5.67700369	     -9.58755757
      0.16000000	      2.84649622	      8.10319207	   -170.94782612	      0.26203778	      0.97377071	      1.01680360	      6.88047848	      8.43132241	     -4.16019550	    -14.86824470	      9.20784426	     -0.65873280	      4.70754091	     -7.12477376	      3.71147416	     -9.29719092	     11.74931989	     -1.21750183	      3.56711234	      5.67718626	     -9.59316065
      0.17000000	      2.85320091	      8.09915856	   -170.97001453	      0.26204061	      0.97374622	      1.01674951	      6.89630257	      8.43048336	     -4.13000985	    -14.88838647	      9.21203747	     -0.66332977	      4.71867342	     -7.12164557	      3.70459690	     -9.31426068	     11.75661215	     -1.22284673	      3.55915329	      5.67974560	     -9.61279245
      0.18000000	      2.85806620	      8.09760679	   -170.98414211	      0.26201230	      0.97372866	      1.01670204	      6.89828018	      8.43049285	     -4.12973436	    -14.88587813	      9.21400159	     -0.66389490	      4.72138588	     -7.12182781	      3.70563920	     -9.31853476	     11.75753497	     -1.22356125	      3.55304125	      5.68021974	     -9.61544348
      0.19000000	      2.88337140	      8.09195259	   -171.02663869	      0.26202267	      0.97367209	      1.01663201	      6.93156226	      8.42746644	     -4.06147633	    -14.90539362	      9.24402079	     -0.67509583	      4.76939181	     -7.11395253	      3.65317078	     -9.37175150	     11.78779861	     -1.24355910	      3.56214484	      5.67860774	     -9.59142926
      0.20000000	      2.88587645	      8.08996157	   -171.04311323	      0.26201527	      0.97365182	      1.01658429	      6.94339388	      8.42776049	     -4.03896310	    -14.92476358	      9.24526272	     -0.67645602	      4.77779333	     -7.11357132	      3.65535229	     -9.38945890	     11.78771234	     -1.24593957	      3.54967381	      5.68050083	     -9.59764176
      0.21000000	      2.90789705	      8.08604471	   -171.07588927	      0.26201476	      0.97359882	      1.01651930	      6.97359991	      8.42498415	     -3.99309201	    -14.94303054	      9.27097634	     -0.68005083	      4.81730945	     -7.10846530	      3.61981064	     -9.43001735	     11.81132962	     -1.25788740	      3.55498175	      5.67725012	     -9.57737078
      0.22000000	      2.92523741	      8.08361694	   -171.10120229	      0.26202372	      0.97355500	      1.01647330	      7.00604053	      8.42174196	     -3.95837132	    -14.97088909	      9.28511591	     -0.67907548	      4.85241588	     -7.10394097	      3.60579183	     -9.46827300	     11.82374889	     -1.26413523	      3.55265120	      5.67680431	     -9.56831519
      0.23000000	      2.94083790	      8.08126927	   -171.12676287	      0.26203188	      0.97351131	      1.01642878	      7.03729095	      8.41758613	     -3.92670083	    -15.00066870	      9.30246216	     -0.67632682	      4.88956183	     -7.09972611	      3.59418408	     -9.51308803	     11.84258653	     -1.26987142	      3.54651401	      5.67619195	     -9.56165060
      0.24000000	      2.94124500	      8.07943950	   -171.14769555	      0.26201916	      0.97349482	      1.01640065	      7.05156063	      8.41510424	     -3.90312955	    -15.02956216	      9.30404397	     -0.67528488	      4.90228665	     -7.09756758	      3.60472952	     -9.54512002	     11.84600347	     -1.27116110	      3.52399049	      5.68017050	     -9.56684792
      0.25000000	      2.97380302	      8.07348360	   -171.18908671	      0.26204824	      0.97342708	      1.01634115	      7.11102899	      8.40504169	     -3.85756362	    -15.07812480	      9.34020326	     -0.66795989	      4.97549830	     -7.08645953	      3.56790843	     -9.62584078	     11.89380501	     -1.28412895	      3.52625466	      5.67261622	     -9.53912632
      0.26000000	      3.00523032	      8.06821687	   -171.22754006	      0.26207413	      0.97337237	      1.01630044	      7.17407719	      8.39328017	     -3.81687552	    -15.13392762	      9.35486048	     -0.65381892	      5.04142372	     -7.07488509	      3.56173891	     -9.69619322	     11.91405306	     -1.29049666	      3.52690679	      5.66668131	     -9.51855522
      0.27000000	      3.02891918	      8.05963176	   -171.26595068	      0.26209172	      0.97333308	      1.01627544	      7.22859663	      8.37843547	     -3.77818299	    -15.19163075	      9.37295093	     -0.63787797	      5.09831389	     -7.06003127	      3.55318022	     -9.76653925	     11.94141011	     -1.29681038	      3.51579037	      5.66076720	     -9.50136840
      0.28000000	      3.02813774	      8.05456626	   -171.29613143	      0.26208141	      0.97333642	      1.01628029	      7.25266158	      8.36913112	     -3.74450150	    -15.24087136	      9.36833775	     -0.63204216	      5.11560888	     -7.05250717	      3.57170891	     -9.81327567	     11.94514118	     -1.29747349	      3.48044864	      5.66397079	     -9.50172518
      0.29000000	      3.07492274	      8.02817319	   -171.36072756	      0.26211942	      0.97327765	      1.01625744	      7.34044848	      8.33045565	     -3.69226325	    -15.31986692	      9.40754276	     -0.59972260	      5.20444392	     -7.01516086	      3.51399919	     -9.90807260	     11.99875276	     -1.30583214	      3.48245532	      5.63644498	     -9.44349717
